<svg xmlns="http://www.w3.org/2000/svg"  viewBox="0 0 50 50" width="50px" height="50px" clip-rule="evenodd"><path fill="none" fill-rule="evenodd" stroke="#000" stroke-linecap="round" stroke-linejoin="round" stroke-miterlimit="10" stroke-width="2" d="M25,3C12.856,3,3.011,12.85,3.011,25c0,11.156,8.299,20.37,19.057,21.805v-4.433c0-1.25-0.788-2.373-1.972-2.771	c-6.207-2.086-10.648-8.022-10.484-14.972C9.811,16.168,16.7,9.515,25.159,9.601C33.587,9.686,40.392,16.548,40.392,25	c0,0.792-0.061,1.584-0.181,2.366c-1.885,12.42-18.053,19.401-18.142,19.439C23.029,46.933,24.007,47,25,47	c12.144,0,21.989-9.85,21.989-22S37.144,3,25,3" clip-rule="evenodd"/></svg>